# xmcd
#
# Track frame offsets:
#	150
#	14185
#	29480
#	45977
#	61435
#	75590
#	91152
#	105990
#	120975
#	140005
#	162625
#	187025
#	204595
#	217695
#
# Disc length: 3070 seconds
#
# Revision: 3
# Processed by: cddbd v1.5PL3 Copyright (c) Steve Scherf et al.
# Submitted via: dBpowerAMP V4.0
#
DISCID=bb0bfc0e
DTITLE=Bob Walsh - Unforgettable songs
DYEAR=2001
DGENRE=Blues
TTITLE0=Fly me to the moon
TTITLE1=Lullaby of Birdland
TTITLE2=What a wonderful world
TTITLE3=Fever
TTITLE4=That's life
TTITLE5=Unforgettable
TTITLE6=Autumn leaves
TTITLE7=Night and day
TTITLE8=Over the rainbow
TTITLE9=Calling you
TTITLE10=Georgia on my mind
TTITLE11=Summertime
TTITLE12=Somewhere
TTITLE13=Smile
EXTD=
EXTT0=
EXTT1=
EXTT2=
EXTT3=
EXTT4=
EXTT5=
EXTT6=
EXTT7=
EXTT8=
EXTT9=
EXTT10=
EXTT11=
EXTT12=
EXTT13=
PLAYORDER=
